<?xml version="1.0" encoding="UTF-8"?><svg id="_レイヤー_2" xmlns="http://www.w3.org/2000/svg" viewBox="0 0 370.44 52.26"><defs><style>.cls-1{fill:#000;}.cls-1,.cls-2{stroke-width:0px;}.cls-2{fill:#fff;}</style></defs><g id="_レイヤー_1-2"><path class="cls-1" d="M3.04,27.72c0-.7.02-1.54.04-2.36-.51.68-1.06,1.33-1.6,1.94-.17.19-.3.3-.4.3-.13,0-.21-.11-.27-.36-.19-.72-.53-1.48-.8-1.88,2.13-2.17,3.67-4.77,4.54-7.28.15-.49.3-.97.36-1.5.74.21,1.44.42,2.03.67.23.11.34.17.34.32s-.06.23-.23.38c-.13.11-.25.3-.42.84-.38,1.03-.84,2.07-1.37,3.08v10.57c0,2.05.04,3.08.04,3.19,0,.21-.02.23-.25.23h-1.77c-.23,0-.25-.02-.25-.23,0-.13.04-1.14.04-3.19v-4.73ZM16.08,22.3c1.92-.21,2.66-.34,2.87-.36.21-.02.23,0,.25.21l.13,1.62c.02.21,0,.23-.21.25l-2.89.32-3.17.36c.27,1.77.7,3.44,1.35,4.88.97,2.28,1.98,3.33,2.51,3.33.34,0,.7-.82.91-2.97.4.36.74.57,1.37.84.63.27.61.32.51.95-.4,2.7-1.22,3.9-2.51,3.9-1.96,0-3.67-2.36-4.81-5.11-.72-1.67-1.18-3.55-1.5-5.57l-1.44.15c-1.92.19-2.64.34-2.83.36-.21.02-.25,0-.27-.23l-.17-1.67c-.02-.23.02-.23.23-.25.21-.02.93-.06,2.85-.25l1.37-.15c-.08-1.01-.17-2.03-.21-3.08-.06-1.41-.08-2.05-.23-3,.76,0,1.52.04,2.26.13.23.02.36.13.36.25,0,.19-.06.3-.13.44-.11.25-.08.7-.06,2.11.04.97.08,1.94.19,2.89l3.27-.36ZM15.15,17.45c.11-.08.17-.13.23-.13s.11.04.19.13c.84.72,1.58,1.5,2.32,2.49.15.19.15.25-.11.46l-1.2.87c-.11.08-.19.15-.23.15-.06,0-.11-.06-.17-.15-.74-1.05-1.48-1.96-2.24-2.64-.08-.06-.13-.13-.13-.19s.08-.13.21-.21l1.12-.78Z"/><path class="cls-1" d="M28.08,27.13c-1.88,0-2.49.04-2.64.04-.19,0-.21-.02-.21-.23v-1.48c0-.21.02-.23.21-.23.15,0,.76.04,2.64.04h5.32v-1.54h-2.74c-2.05,0-2.76.04-2.89.04-.23,0-.25-.02-.25-.23v-1.41c0-.21.02-.23.25-.23.13,0,.84.04,2.89.04h2.74v-1.41h-3.69c-2.03,0-2.7.04-2.83.04-.23,0-.25-.02-.25-.23v-1.46c0-.21.02-.23.25-.23.13,0,.8.04,2.83.04h3.69v-.21c0-.87-.04-1.41-.17-2,.76.02,1.58.06,2.32.15.21.02.32.13.32.21,0,.17-.04.3-.11.46-.13.21-.15.49-.15,1.16v.23h4.05c2.05,0,2.72-.04,2.85-.04.21,0,.23.02.23.23v1.46c0,.21-.02.23-.23.23-.13,0-.8-.04-2.85-.04h-4.05v1.41h3.17c2.07,0,2.79-.04,2.91-.04.21,0,.23.02.23.23v1.41c0,.21-.02.23-.23.23-.13,0-.84-.04-2.91-.04h-3.17v1.54h5.68c1.88,0,2.51-.04,2.64-.04.21,0,.21.02.21.23v1.48c0,.21,0,.23-.21.23-.13,0-.76-.04-2.64-.04h-4.54c.4.95.95,1.86,1.62,2.66.68-.51,1.27-.99,1.84-1.62.25-.25.46-.53.65-.89.65.38,1.18.72,1.67,1.12.11.08.21.21.21.32,0,.17-.08.25-.27.32-.17.04-.36.15-.7.42-.65.57-1.31,1.1-2.11,1.65,1.33,1.12,2.98,1.98,4.92,2.47-.38.36-.78.84-1.12,1.48-.19.36-.27.49-.44.49-.11,0-.25-.06-.51-.15-4.03-1.71-6.63-4.56-7.87-8.25h-.25c-.51.55-1.08,1.08-1.69,1.58v4.35c1.44-.27,2.87-.61,4.45-1.03-.08.4-.11.8-.11,1.25q-.02.65-.68.82c-2.6.67-5.04,1.16-7.01,1.5-.42.06-.7.13-.8.21-.13.08-.21.13-.34.13-.15,0-.27-.06-.34-.3-.19-.61-.38-1.29-.51-1.92.82-.04,1.62-.11,2.51-.21l.68-.08v-3.21c-1.22.74-2.53,1.37-3.84,1.86-.23.08-.38.13-.49.13-.19,0-.27-.15-.46-.53-.25-.49-.57-.87-.89-1.18,2.47-.63,5.13-1.9,6.77-3.36h-3.59Z"/><path class="cls-1" d="M66.46,19.2c.27,0,.42-.02.51-.06.11-.06.21-.08.32-.08.15,0,.36.15.89.68.32.36.51.63.51.8s-.11.34-.23.51c-.15.19-.23.57-.32,1.08-.49,3.02-1.2,5.49-2.53,7.72.97,1.29,2.22,2.45,3.8,3.57-.34.34-.78.97-1.1,1.62-.15.3-.23.44-.38.44-.11,0-.25-.11-.49-.29-1.27-1.06-2.34-2.17-3.23-3.38-1.01,1.22-2.28,2.43-3.86,3.61-.23.17-.36.25-.46.25-.17,0-.25-.17-.42-.51-.27-.53-.59-1.01-.99-1.33,1.92-1.16,3.4-2.47,4.52-3.97-1.44-2.55-2.22-5.44-2.53-8.65-.65,0-.95.02-1.03.02-.21,0-.23-.02-.23-.25v-1.69h-.8v14.08c0,1.44.04,2.11.04,2.24,0,.21-.02.23-.23.23h-1.65c-.21,0-.23-.02-.23-.23,0-.15.04-.8.04-2.24v-1.77c-1.54.55-3.65,1.18-5.02,1.56-.42.11-.59.19-.68.25-.11.08-.21.15-.34.15s-.23-.08-.27-.27c-.15-.57-.32-1.33-.44-2,.74-.08,1.16-.15,1.81-.32v-11.69c-.84.02-1.22.04-1.31.04-.21,0-.23-.02-.23-.23v-1.5c0-.23.02-.25.23-.25.13,0,.76.04,2.6.04h4.2c1.86,0,2.49-.04,2.62-.04.21,0,.23.02.23.25v1.6c.34.02.97.02,2.15.02h4.56ZM56.35,21.52v-2.26h-2.93v2.26h2.93ZM56.35,25.63v-2.26h-2.93v2.26h2.93ZM56.35,27.49h-2.93v2.95c.97-.25,2-.57,2.93-.87v-2.09ZM62.54,21.18c.27,2.57.8,4.71,1.73,6.56.93-1.9,1.48-4.05,1.77-6.56h-3.5Z"/><path class="cls-1" d="M75.36,29.79c.04-.46.06-.8.04-1.31.65.08,1.2.17,1.62.25.25.04.36.17.36.25,0,.13-.04.23-.11.32-.06.11-.13.42-.17.78-.13,1.25-.4,2.85-.72,3.92-.11.34-.15.51-.3.51-.08,0-.23-.11-.46-.25-.27-.19-.72-.42-1.14-.63.46-1.12.76-2.41.87-3.84ZM81.04,23.4c.19-.06.25-.04.34.15.44,1.01.82,2.41,1.08,3.71.04.23,0,.32-.27.38l-.91.21c-.3.08-.34.08-.36-.17l-.15-.8-1.03.13v5.8c0,1.94.04,2.66.04,2.76,0,.21-.02.23-.23.23h-1.6c-.21,0-.23-.02-.23-.23,0-.13.04-.82.04-2.76v-5.61l-1.44.11c-.36.02-.65.08-.78.17-.11.06-.21.08-.34.08-.15,0-.23-.13-.27-.34-.11-.55-.17-1.1-.23-1.79.53.04.95.06,1.41.06.44-.57.87-1.14,1.27-1.73-.76-1.01-1.65-1.98-2.57-2.87-.15-.19-.11-.25.04-.46l.8-1.03c.17-.21.23-.23.38-.06.11.13.23.23.34.34.42-.68.84-1.46,1.18-2.22.19-.42.27-.7.38-1.12.61.23,1.22.51,1.75.76.19.11.27.21.27.34s-.08.21-.19.27c-.17.11-.32.34-.46.61-.55.99-1.01,1.79-1.67,2.72.3.34.59.68.87,1.01.44-.72.87-1.44,1.27-2.15.23-.44.42-.84.59-1.33.57.23,1.25.49,1.75.78.19.11.25.17.25.29,0,.15-.06.23-.23.34-.21.15-.34.34-.65.82-1.08,1.73-2.19,3.33-3.19,4.64.68-.04,1.37-.08,2.11-.15-.13-.44-.27-.87-.44-1.31-.08-.19-.04-.25.23-.34l.87-.25ZM81.35,28.44c.25-.08.3-.06.36.15.36,1.16.63,2.38.87,3.82.04.21.04.27-.25.38l-1.06.36c-.3.11-.34.08-.36-.15-.17-1.52-.44-2.89-.74-3.95-.06-.21-.04-.23.21-.32l.97-.3ZM85.83,20.38c.25-.08.32-.02.4.13.23.38.53,1.03.72,1.65.06.21.04.32-.25.42l-1.22.4h3.5c.23-.49.4-1.01.55-1.54.11-.32.17-.65.21-1.01.68.11,1.35.27,1.86.44.17.04.3.11.3.23s-.08.21-.17.27c-.13.11-.19.21-.25.4l-.55,1.2c1.9,0,2.57-.04,2.7-.04.21,0,.23.02.23.23,0,.13-.04.44-.04.84v.46c0,1.31.04,1.58.04,1.71,0,.21-.02.23-.23.23h-1.52c-.21,0-.23-.02-.23-.23v-1.46h-7.51v1.48c0,.21-.02.23-.25.23h-1.48c-.21,0-.23-.02-.23-.23,0-.13.04-.4.04-1.73v-.32c0-.55-.04-.87-.04-.99,0-.21.02-.23.23-.23.13,0,.8.04,2.62.04-.06-.04-.11-.11-.13-.21-.15-.55-.36-1.18-.59-1.58-.13-.23-.13-.32.19-.42l1.12-.38ZM85.74,20.27c-1.9,0-2.57.04-2.68.04-.21,0-.23-.02-.23-.23v-1.43c0-.21.02-.23.23-.23.11,0,.78.04,2.68.04h1.2v-.17c0-.78-.04-1.33-.15-1.84.76.02,1.41.06,2.17.13.21.02.34.11.34.21,0,.15-.06.25-.13.4-.08.19-.11.44-.11,1.1v.17h1.56c1.92,0,2.6-.04,2.72-.04.21,0,.21.02.21.23v1.43c0,.21,0,.23-.21.23-.13,0-.8-.04-2.72-.04h-4.9ZM92.87,29.98c0,1.08.04,1.73.04,2.28,0,.59-.08.97-.51,1.35-.25.25-.8.36-1.75.4q-.68.02-.78-.63c-.08-.44-.23-1.08-.46-1.37.38.02.7.04,1.06.04.32,0,.49-.13.49-.53v-2.81h-1.96v6.94c0,.21-.02.23-.23.23h-1.5c-.23,0-.25-.02-.25-.23,0-.15.04-.99.04-3.1v-3.84h-1.86v3.19c0,1.33.02,1.9.02,2.03,0,.23,0,.25-.21.25h-1.52c-.21,0-.23-.02-.23-.25,0-.13.04-.68.04-2.09v-2.74c0-1.29-.04-1.84-.04-1.96,0-.21.02-.23.23-.23.15,0,.78.04,2.62.04h.95c-.02-.76-.04-1.29-.13-1.86.72.02,1.41.06,1.96.13.21.04.32.13.32.23,0,.19-.08.34-.13.53-.04.21-.08.51-.08.97h1.08c1.81,0,2.47-.04,2.62-.04.21,0,.23.02.23.23,0,.11-.04.78-.04,2.11v.74Z"/><path class="cls-1" d="M101.48,29.9c0-.63.02-1.46.04-2.22-.4.4-.8.78-1.2,1.14-.23.19-.38.3-.49.3s-.19-.15-.27-.46c-.17-.57-.44-1.16-.7-1.5,1.71-1.22,3.14-2.79,4.22-4.68.19-.34.36-.74.49-1.12.55.27,1.2.63,1.67.97.19.15.27.21.27.36,0,.11-.06.19-.17.23-.15.11-.3.25-.44.51-.42.65-.87,1.31-1.35,1.94v7.64c0,1.69.04,2.49.04,2.6,0,.23-.02.25-.21.25h-1.71c-.21,0-.21-.02-.21-.25,0-.11.02-.91.02-2.6v-3.1ZM105.13,17.47c.19.13.27.23.27.38,0,.17-.11.23-.32.36-.15.08-.34.25-.59.57-.97,1.2-2.13,2.38-3.67,3.5-.25.17-.38.25-.46.25-.13,0-.21-.13-.38-.46-.25-.51-.61-.95-.91-1.25,1.48-.89,2.81-2.11,3.78-3.36.3-.36.49-.65.63-.95.61.27,1.12.57,1.65.95ZM114.42,25.47c.25,0,.4-.04.51-.11.08-.04.17-.08.25-.08.17,0,.36.13.8.57.49.53.63.78.63.95,0,.13-.11.23-.23.32-.19.11-.3.27-.57.8-.76,1.43-1.69,2.7-2.83,3.8,1.54.93,3.44,1.6,5.68,1.98-.3.36-.61.91-.8,1.43-.23.63-.25.65-.91.49-2.11-.57-3.99-1.39-5.59-2.53-1.52,1.12-3.33,1.98-5.4,2.6q-.63.17-.89-.46c-.21-.51-.51-.97-.82-1.29,2.15-.51,3.97-1.27,5.47-2.26-1.16-1.2-2.11-2.62-2.81-4.33-.87,0-1.24.02-1.31.02-.21,0-.23-.02-.23-.21v-1.5c0-.21.02-.23.23-.23.11,0,.78.04,2.76.04h6.06ZM109.77,19.14c-.04,2.57-.63,3.99-2.19,5.42-.23.23-.38.34-.49.34-.15,0-.27-.13-.51-.42-.38-.44-.84-.8-1.24-.97,1.86-1.27,2.26-2.51,2.26-5.21,0-.51-.04-.82-.04-.95,0-.21.02-.23.23-.23.13,0,.57.04,2.03.04h2.38c1.46,0,1.92-.04,2.05-.04.23,0,.25.02.25.23,0,.13-.04.65-.04,1.71v2.32c0,.4.02.55.13.68.08.11.27.17.78.17.59,0,.74-.08.89-.29.17-.27.25-.72.27-1.79.27.21.84.42,1.37.53s.53.15.46.78c-.13,1.41-.3,1.81-.7,2.19-.42.42-1.14.55-2.66.55-1.01,0-1.71-.11-2.09-.34-.38-.23-.59-.74-.59-1.43v-3.27h-2.55ZM109.04,27.32c.55,1.2,1.31,2.26,2.26,3.12,1.01-.93,1.81-1.96,2.41-3.12h-4.66Z"/><path class="cls-1" d="M187.01,12.48l-.54,1.72c-5.82-.05-11.38,1.34-16.9,3.01.13,3.12-1.67,5.58-2.88,8.27-.36.8-.36,1.77-.74,2.55-.41.84-3.36,5.09-3.35,5.41.02.83,1.87.07,2.18,0,1.76-.45,3.38-1.31,5.12-1.82,2.65-.78,10.46-3.32,12.64-3.46,1.33-.09,3.76.54,5.15.82,1.25,1.01.87,8.39.84,10.33-.01.88-.47,1.76-.42,2.55.06.83.76,1.33.76,1.82,0,.68-1.64,2.93-1.09,4.21-2.65.23-2.43-1.08-4.2-2.2-1.66.58-3.37.19-5.02.46-2.95.48-6.63,2.71-9.64,2.81-1.14.04-2.24-.55-3.41-.34-.08-.96-.05-.61.55-.72,4.04-.75,7-1.61,10.9-2.63,2.67-.7,5.39-.47,7.74-2.12.91-3.4-.36-6.26-.89-9.37-.16-.92.34-2.7-.64-3.03-1.11-.38-1.93.52-2.89.67-2.94.48-6.08,1.02-9.01,1.95-1.58.5-4.72,2.72-6.01,2.74-.75.01-2.5-1.56-3.77-1.01,2.27,2.4,4.18,5.05,3.97,8.53-.03.56-1.12,7.27-1.78,6.45l-.2-1.12-2.03-.19v-5.78s-1.6-4.24-1.6-4.24c-1.84,1.45-2.58,3.71-4.02,5.48-2.1,2.59-5.05,5.07-7.48,7.39-.32.3-.69.52-1.1.64-.26-.27,1.18-2.01,1.47-2.37,2.63-3.26,4.97-6,6.84-9.41-.04-1.77,1.7-3.36,2.99-4.54.23-.77-.89-1.26-.68-2.07.22-.83,2.83-3.18,3.4-4.32.47-.94.47-1.91.88-2.78,1.34-2.85,2.82-4.63,2.26-8.15-4.51.77-11.44,6.45-13.51-.37,1.23-.1,2.51,1.42,3.4,1.37,2.27-.11,8.11-3.01,10.76-3.83,4.76-1.48,10.06-2.86,14.91-3.72,2.25-.4,4.79-.22,7.03.38Z"/><path class="cls-1" d="M243.32,51.89c-.57-.42-2.14-.41-2.47-.81-.63-.76-2.4-13.95-2.5-15.88-.27-5.14.81-11.17.14-16.3-.1-.74-1.43-5.79-1.71-6.24-.61-.98-2.5-.15-2.95-.97,1.76-.48,5.07.21,6.22,1.63.52.65,1.45,5.55,1.47,6.6.11,7.01-.82,14.07,0,21.17.19,1.69,2.37,10.03,1.82,10.78Z"/><path class="cls-1" d="M212.51,18.76c2.6,2.22,2.89,7.19,1.93,10.27-.11.36-1.28,3.03-1.41,3.24-.65.99-2.37.05-2.91-.72.58-5.21,1.59-11.02-2.96-14.74,1.68.44,4.02.81,5.35,1.95Z"/><path class="cls-1" d="M226.15,28.51l-2.58-1.34c.32-1.16.14-2.39.22-3.46.23-2.76.05-1-.49-2.76-.24-.78.04-1.61-.35-2.57-.51-1.24-1.9-1.11-1.91-2.29,8.37.88,6.89,6.16,5.11,12.43Z"/><path class="cls-1" d="M337.47,16.7c.09-.04.14-.5.38-.59.51-.18,5.03-1.05,4.46-.04-.91-.13-.56.78-.99,1.1-.58.42-4.02,1.71-4.31,2.19-.6.98.16,2.35.1,3.39-.08,1.42-1.33,2.76-1,4.29,1.01-.83,2.14-1.17,3.36-1.57,3.41-1.12,5.53-1.23,9.22-1.73,1.75-.24,1.25-.9,3.93-.24.46.11,1.94.51,2.12.98-2.2.8-4.33-.06-6.33.03-1.59.07-7.46,1.94-9.09,2.63-.85.36-2,1.37-3.03,1.72l-.91,4.02c6.63,1.39,11.22,6.62,17.55,8.94,3.55,1.3,11.88,3.08,15.51,2.78.82-.07,1.32-.38,2.01-.75.05,2-2.26,2.06-3.84,2.19-4.45.37-10.77-.81-15.07-2.09-6.52-1.94-11.22-5.8-16.7-9.6l-8.04,13.52c-.79.96-.64-1.11-1.46-.73-1.25,1.81-3.22,3.02-4.93,4.38-.03-1.05,1.17-1.4,1.55-2.3.17-.41-.08-.89.11-1.33.34-.81,1.73-1.25.9-2.58.96-.47.61,1.37,1.45.72.07-.06.37-1.15,1.13-1.31l-.76-1.61c1.62.1,1.85-1.23,1.83-2.56l.37,1.09c.83-.16.58-1.21.94-1.8.11-.19,2.4-2.66.52-1.67-.27.14-.69,1.03-1.1.36l2.18-6.18c-.72-1.17-1.95-.22-2.99-.31-.59-.05-8.63-1.52-7.22-2.82,1.95.67,3.89,1.32,6,1.06.78-.09,5.28-1.42,5.81-1.77,1.22-.81-.26-6.44.25-8.07-2.46.32-7,1.16-8.03-1.83.98.44,8.16-.39,8.4-.74l-1.83-7.67c3.91.67,5.12,2.39,5.65,6.21.44.52,1.33.5,1.92.25Z"/><path class="cls-1" d="M275.1,23.39l10.32-3.29c1.66-3.42-3.09-.63-4.38-.44-1.97.29-4.23-.52-5.2-2.3,2.81.32,5.56-.84,8.24-1.63-.13-1.43-1.57-4.44-3.13-4.26-2.73.32-4.6,3.7-7.86,1.7-.37-.23-2.72-2.58-2.36-2.93.54.05.97.32,1.54.27,3.63-.34,14.97-2.47,18.28-3.59.3-.1.29-.71.49-.72.91-.04,3.36,1.46,4.53,1.48l-11.77,2.65-1.38.82c2.24.16,3.53,1.94,4.42,3.81l5.17-2.1,4.93,1.85.45,2.84c2.43-.16,4.73.62,6.94,1.46-.61.97-2.52,0-3.43.03-1.04.03-2.37.66-3.47.73l-.4,7.28c-2.51-.32-4.78-.6-7.29.02.26,2.81-1.03,5.62,0,8.36,2.14.02,1.27-.67,1.8-1.24.19-.2,3.97-3.26,4.24-3.44,2.1-1.34,3.92,2.09,3.42,3.96-2.26,0-3.96,1.29-5.66,2.57-.82,1.09,5.86,4.32,6.68,4.66,4.26,1.73,9.07,2.41,13.6,2.84.06.68-.65.88-1.16,1.03-2.73.85-10.61-.7-13.35-1.88-3-1.29-5.37-3.97-7.97-5.88-2.51.02,1.18,10.07.18,11.65-2.83-1.47-8.86-1.07-9.13-5.12l-.75.23c-.79,2.47-3.54,3.81-6.03,3.46-.7-.1-.48-.76-.75-.78-.68-.06-1.59.89-1.96-.34.86-.18,2.98-1.06,3.54-1.57.64-.57,3.21-3.99,3.75-4.84.69-1.07,1.37-2.46,1.83-3.66.2-.64-.47-.7-.9-.71-1.86-.03-4.05.96-5.67-.92l8.04-1.31c.85.44.54,2.39,2.19,2.04v.54c-1.39,1.06-1.13,2.88-1.64,4.21-.66,1.73-3.74,4.22.76,4.72,5.09.56,2.04-6.43,1.64-9.34-.15-1.14.26-2,.2-2.82-.11-1.46-1.08-3.07-.97-4.62-1.4,0-2.4,1.06-3.83,1.1-.25,0-2.82-.19-3.04-.25-2.14-.5-.95-1.41.41-2.02,1.86-.83,4.5-1.51,6.49-1.91.61-.4.53-3.78-.2-3.85l-10.6,3.64c-1.3,3.34-1.04,6.98-1.69,10.37-.69,3.59-3.08,6.4-4.52,9.38-.17.35.14.88,0,1.08-.09.14-1.92.18-2.29,1.37l-5.21,2.27c.97-2.47,2.95-4.22,4.31-6.46.86-1.42,1.36-3.09,2.13-4.41.31-.52,1.03-.65,1.32-1.26,1.57-3.35,1.32-9.35,2.56-12.43.28-.7.9-1.03,1.36-1.56l-.73-.54-.36.73c.52-3.9.29-8.14-1.46-11.69,1.54.81,4.75,2.62,4.75,4.57v6.4ZM291.53,16.45l-3.25.76c-.41,2.68,1.52,1.33,3.2,1.38.43-.73.3-1.38.04-2.14ZM292.64,25.22l-.74-5.49-2.53.96c.41,1.55.44,2.78-.02,4.32l.74.42,2.54-.22Z"/><path class="cls-1" d="M284.96,6.2l-.9.74c-2.53-1.53-4.81-3.93-5.3-6.95,2.57,1.6,4.69,3.56,6.2,6.2Z"/><path class="cls-2" d="M292.64,25.22l-2.54.22-.74-.42c.45-1.55.43-2.77.02-4.32l2.53-.96.74,5.49Z"/><path class="cls-2" d="M291.53,16.45c.25.77.39,1.41-.04,2.14-1.68-.05-3.61,1.29-3.2-1.38l3.25-.76Z"/></g></svg>