<?xml version="1.0" encoding="UTF-8"?><svg xmlns="http://www.w3.org/2000/svg" viewBox="0 0 1965.91 147.43"><defs><style>.cls-1{isolation:isolate;}.cls-2{fill:#ebedef;stroke-width:0px;}.cls-3{mix-blend-mode:multiply;}</style></defs><g class="cls-1"><g id="_レイヤー_2"><g id="_レイヤー_1-2"><g class="cls-3"><path class="cls-2" d="M65.16,136.47l-11.53-80.15h-.38l-11.73,80.15h-20.76L0,1.92h20.95l11.73,89.19h.38L44.59,1.92h18.07l11.53,89.19h.38L86.3,1.92h20.38l-20.76,134.55h-20.76Z"/><path class="cls-2" d="M139.93,20.76v38.06h29.79v18.84h-29.79v39.98h36.91v18.84h-57.28V1.92h57.28v18.84h-36.91Z"/><path class="cls-2" d="M260.07,1.92c21.91,0,33.83,11.92,33.83,34.02v10.76c0,22.11-11.92,34.02-33.83,34.02h-9.03v55.74h-20.38V1.92h29.41ZM251.03,61.89h8.27c9.8,0,14.22-5.19,14.22-16.53v-8.07c0-11.34-4.42-16.53-14.22-16.53h-8.27v41.13Z"/><path class="cls-2" d="M369.27,106.29c0,21.14-12.11,32.1-31.72,32.1s-31.33-10.96-31.33-32.1V1.92h19.61v103.8c0,9.8,4.42,13.46,11.53,13.46s11.53-3.65,11.53-13.46V1.92h20.38v104.37Z"/><path class="cls-2" d="M422.72,21.14v115.33h-20.37V21.14h-21.72V1.92h63.81v19.22h-21.72Z"/><path class="cls-2" d="M557.66,34.02v70.35c0,8.26-1.92,15.38-5.57,20.95,2.31,2.5,5.96,3.27,10.38,3.27l-1.92,18.84c-10,0-17.68-3.27-22.49-11.15-3.84,1.35-8.46,2.11-13.26,2.11-20.37,0-32.87-12.88-32.87-34.02V34.02c0-21.14,12.49-34.02,32.87-34.02s32.87,12.88,32.87,34.02ZM512.3,34.21v69.97c0,10,4.42,15.38,12.49,15.38s12.49-5.38,12.49-15.38V34.21c0-10-4.42-15.38-12.49-15.38s-12.49,5.38-12.49,15.38Z"/><path class="cls-2" d="M635.32,106.29c0,21.14-12.11,32.1-31.72,32.1s-31.33-10.96-31.33-32.1V1.92h19.61v103.8c0,9.8,4.42,13.46,11.53,13.46s11.53-3.65,11.53-13.46V1.92h20.38v104.37Z"/><path class="cls-2" d="M697.17,136.47l-4.42-30.56h-22.49l-4.42,30.56h-20.38L668.72,1.92h25.95l23.26,134.55h-20.76ZM672.95,87.46h17.11l-8.27-56.7h-.58l-8.27,56.7Z"/><path class="cls-2" d="M785,117.25v19.22h-54.4V1.92h20.38v115.33h34.02Z"/><path class="cls-2" d="M796.95,136.47V1.92h20.38v134.55h-20.38Z"/><path class="cls-2" d="M871.19,21.14v115.33h-20.37V21.14h-21.72V1.92h63.81v19.22h-21.72Z"/><path class="cls-2" d="M947.65,136.47h-20.38v-60.93L899.02,1.92h21.53l17.11,47.67h.38l16.34-47.67h21.14l-27.87,73.81v60.74Z"/><path class="cls-2" d="M1041.26,20.76v38.06h28.83v18.84h-28.83v58.82h-20.38V1.92h56.32v18.84h-35.94ZM1090.66,136.47V1.92h20.38v134.55h-20.38Z"/><path class="cls-2" d="M1156.69,79.58h-9.42v56.9h-20.38V1.92h29.41c21.91,0,33.83,11.92,33.83,34.02v9.61c0,14.22-5,24.22-14.42,29.6l18.65,61.32h-21.53l-16.15-56.9ZM1147.27,60.74h8.26c9.8,0,14.22-5.19,14.22-16.53v-6.92c0-11.34-4.42-16.53-14.22-16.53h-8.26v39.98Z"/><path class="cls-2" d="M1262.77,30.75v3.84l-19.61,1.92v-4.23c0-9.23-3.46-13.46-10.57-13.46-5.96,0-10.19,3.27-10.19,10.96v2.88c0,7.5,3.84,13.65,17.11,25.76,18.07,16.72,24.22,27.68,24.22,43.25v6.54c0,19.8-12.49,30.18-31.14,30.18s-31.52-10.96-31.52-30.75v-8.84l19.61-1.92v9.23c0,9.03,4.23,13.46,11.53,13.46,6.15,0,11.15-3.27,11.15-12.88v-4.23c0-8.46-3.84-14.61-17.11-26.72-18.07-16.72-24.22-27.68-24.22-42.29v-3.27c0-19.8,11.53-30.18,30.37-30.18s30.37,10.96,30.37,30.75Z"/><path class="cls-2" d="M1312.89,21.14v115.33h-20.38V21.14h-21.72V1.92h63.82v19.22h-21.72Z"/><path class="cls-2" d="M1332.11,77.08v-15.76h142.24v15.76h-142.24Z"/><path class="cls-2" d="M1531.3,136.47l-4.42-30.56h-22.49l-4.42,30.56h-20.38L1502.86,1.92h25.95l23.26,134.55h-20.76ZM1507.08,87.46h17.11l-8.27-56.7h-.58l-8.27,56.7Z"/><path class="cls-2" d="M1619.13,117.25v19.22h-54.4V1.92h20.38v115.33h34.02Z"/><path class="cls-2" d="M1683.46,136.47l-11.53-80.15h-.38l-11.72,80.15h-20.76L1618.3,1.92h20.95l11.73,89.19h.38l11.53-89.19h18.07l11.53,89.19h.38l11.73-89.19h20.37l-20.76,134.55h-20.76Z"/><path class="cls-2" d="M1775.44,136.47l-4.42-30.56h-22.49l-4.42,30.56h-20.38L1746.99,1.92h25.95l23.26,134.55h-20.76ZM1751.22,87.46h17.11l-8.27-56.7h-.58l-8.27,56.7Z"/><path class="cls-2" d="M1839.14,136.47h-20.37v-60.93l-28.26-73.62h21.53l17.11,47.67h.38l16.34-47.67h21.14l-27.87,73.81v60.74Z"/><path class="cls-2" d="M1931.56,30.75v3.84l-19.61,1.92v-4.23c0-9.23-3.46-13.46-10.57-13.46-5.96,0-10.19,3.27-10.19,10.96v2.88c0,7.5,3.84,13.65,17.11,25.76,18.07,16.72,24.22,27.68,24.22,43.25v6.54c0,19.8-12.49,30.18-31.14,30.18s-31.52-10.96-31.52-30.75v-8.84l19.61-1.92v9.23c0,9.03,4.23,13.46,11.53,13.46,6.15,0,11.15-3.27,11.15-12.88v-4.23c0-8.46-3.84-14.61-17.11-26.72-18.07-16.72-24.22-27.68-24.22-42.29v-3.27c0-19.8,11.53-30.18,30.37-30.18s30.37,10.96,30.37,30.75Z"/><path class="cls-2" d="M1944.38,136.47v-21.53h21.53v21.53h-21.53Z"/></g></g></g></g></svg>