<?xml version="1.0" encoding="UTF-8"?><svg id="_レイヤー_2" xmlns="http://www.w3.org/2000/svg" viewBox="0 0 827.47 250.33"><defs><style>.cls-1{fill:#fff;stroke-width:0px;}</style></defs><g id="_レイヤー_1-2"><path class="cls-1" d="M421.33,155.53c.12.31.19.59.23.84.15,1.04-.38,1.82-1.58,2.36-.07.05-1.31.42-3.73,1.13-5.44,1.57-12.15,3.26-20.14,5.08-1.48,4.8-3.22,14.47-5.23,28.98,6.68-1.56,13.48-2.9,20.4-4.02,2.07-.33,3.54.14,4.41,1.4.18.27.62,1.41,1.3,3.43.11.28.18.52.21.74.17,1.22-1.11,2.25-3.83,3.11-1.95.64-3.13.97-3.53.99-.69.06-1.25-.21-1.7-.8-.64-.9-1.65-1.25-3.05-1.05-7.8,1.1-12.88,1.96-15.24,2.58-.82,3.47-1.85,12.67-3.07,27.59-.23,2.77-.92,4.24-2.07,4.4-.75.11-2.35-.07-4.78-.53-1.46-.27-2.2-1.77-2.22-4.5.02-3.51.25-6.93.69-10.28.22-1.56,1.61-2.29,4.18-2.18.56-1.98,1.13-5.09,1.7-9.33-2.05-3.65-3.08-5.53-3.09-5.64-.03-.21-.04-.43-.04-.65.05-1.21,1.69-2.41,4.91-3.59.09-.63,1.71-10.39,4.86-29.26-5.59,1.23-11,2.86-16.22,4.91-5.92,2.29-9.74,4.46-11.46,6.48-1.81,2.15-2.59,4.18-2.32,6.07.29,2.04,1.92,5.1,4.9,9.17.31.39.5.8.56,1.23.13.89-.22,1.4-1.04,1.52-.57.08-1.14-.19-1.7-.8-3.4-3.65-5.68-6.54-6.86-8.67-.83-1.49-1.58-3.7-2.25-6.63-.98-4.35,2.13-8.07,9.32-11.17,9.43-4.06,19.14-7.25,29.14-9.58.82-2.49,1.51-3.77,2.09-3.85.82-.12,2.36.58,4.62,2.09.93-.13,3.78-.9,8.55-2.3.8-.26,1.57-1.01,2.31-2.24.64-1.15,2.44-2,5.39-2.56,1.63-.3,2.85.15,3.64,1.35.1.17.68,1.57,1.74,4.19Z"/><path class="cls-1" d="M473,181.65c-2.01,9.59-3.2,17.57-3.58,23.94.47-.58,1.06-1.45,1.8-2.61.73-1.16,1.19-1.85,1.38-2.06.41-.71.9-1.11,1.47-1.19.54-.08.84.16.92.69.05.32-.04.72-.27,1.19-2.66,5.45-4.19,10.79-4.59,16.03-.12,1.48-.5,2.26-1.15,2.35-.61.09-1.82-.33-3.62-1.24-1.06-.51-1.69-.97-1.89-1.38-.23-.37-.35-1.16-.33-2.36.22-9.3,1.04-17.12,2.45-23.45-2.4,5.49-5.86,11.67-10.37,18.54-3.94,5.99-6.84,9.87-8.71,11.63-1.36,1.25-2.43,1.93-3.22,2.04-.65.09-1.7-.29-3.17-1.14-2.06-.88-3.23-2.32-3.51-4.32-.06-.39-.08-.85-.08-1.36-.1-5.39,1.36-11.88,4.38-19.48,3.02-7.6,6.78-14.18,11.29-19.74,1.46-1.81,2.85-2.79,4.18-2.94,1.3-.11,3.99,1.24,8.07,4.07.36.24.57.52.61.84.08.57-.26.91-1.01,1.02-.29.04-.56.03-.83-.05-2.69-.71-4.73-.39-6.1.97-3.02,2.94-6.13,7.81-9.33,14.62-3.72,7.82-5.65,14.66-5.82,20.52,0,.26.01.49.04.71.13.9.55,1.29,1.26,1.19,1.22-.17,2.55-1.22,3.99-3.14,3.46-4.46,7.06-9.97,10.81-16.52,3.83-6.78,6.18-11.82,7.07-15.12.64-2.43,1.04-4.12,1.2-5.1.24-1.68.63-2.55,1.16-2.63.54-.08,1.89.48,4.07,1.67.91.49,1.43.98,1.58,1.47.13.42.08,1.19-.16,2.32Z"/><path class="cls-1" d="M524.62,170.5c.78,5.55.64,10.13-.42,13.74-.45,1.48-1.4,1.95-2.87,1.39-2.16-.83-3.29-1.6-3.39-2.31-.05-.32.14-.69.55-1.12.73-3.61.91-6.35.54-8.23-.3-1.6-1.22-2.29-2.76-2.08-.18.02-.45.02-.82-.02-.37-.04-.66-.04-.88-.01-1.25.18-2.63,1.57-4.12,4.19-1.63,2.93-3.03,6.89-4.19,11.87-.95,4.11-1.48,7.6-1.59,10.46-.11,2.06-.05,3.91.18,5.56.77,5.48,2.88,7.92,6.34,7.32,3.03-.5,6.95-4.94,11.76-13.32.48-.76.95-1.17,1.41-1.24.47-.06.74.19.82.76.04.29,0,.66-.12,1.11-1.24,4.92-3.15,9.37-5.73,13.34-.62,1-1.89,1.63-3.78,1.9-1.15.16-2.58.12-4.29-.11-3.32.25-6.1-.44-8.34-2.06-2.4-1.74-3.76-4.27-4.08-7.58-.39-3.81.19-9.26,1.75-16.34,1.66-7.68,3.72-13.37,6.19-17.08,1.15-1.69,2.19-2.61,3.12-2.74.93-.13,2.87.4,5.81,1.59,1.39-.75,2.8-1.22,4.23-1.42,2.83-.4,4.38.41,4.66,2.41Z"/><path class="cls-1" d="M571.64,134.37c1.08.4,1.66.93,1.76,1.61.07.47-.24.75-.92.84-.14.02-.37.03-.68.01-.31,0-.54,0-.68.02-1.36.19-2.8,1.91-4.31,5.15-1.34,2.89-2.91,8.99-4.71,18.29-.18.83-.22,1.31-.13,1.44.14.24.63.31,1.46.23,2.14-.12,4.95-.59,8.45-1.41,1.2-.28,1.88.16,2.04,1.3.11.79-.29,1.34-1.19,1.65-.74.21-4.65,1.09-11.73,2.63-2.53,13.17-3.64,24.16-3.35,32.99.03.47.07.88.12,1.24.17,1.22.56,1.78,1.17,1.7.96-.14,3.55-2.89,7.76-8.26.49-.65,1.01-1.02,1.54-1.09.47-.06.78.09.94.47.17.41.08.94-.27,1.57-2.36,4.24-4.75,7.89-7.16,10.97-1.03,1.27-1.93,1.97-2.72,2.08-.79.11-2.09-.34-3.92-1.36-2.11-.25-3.29-1.18-3.51-2.79-.04-.25-.04-.54-.01-.88.02-9.42,1.02-21.15,2.99-35.18-1.93.02-3.69,0-5.26-.03-.69-.01-1.09-.39-1.2-1.15-.12-.82.17-1.37.86-1.65.69-.28,1.96-.86,3.81-1.74,1.13-.56,2.2-1.26,3.21-2.09,2.16-12.38,4.09-20.48,5.78-24.3.97-2.18,2.17-3.37,3.6-3.57,1.36-.19,3.45.24,6.26,1.31Z"/><path class="cls-1" d="M623.88,162.22c.38,3.2.2,7.53-.52,13-1.16,8.63-3.54,15.53-7.16,20.71-1.91,2.75-4.25,4.32-7,4.71-1.07.15-2.48.11-4.23-.12-3.4.26-6.28-.41-8.66-2.01-2.58-1.75-4.03-4.27-4.35-7.55-.39-3.81.17-9.29,1.68-16.44,1.68-7.79,3.75-13.52,6.23-17.19,1.17-1.77,2.21-2.72,3.1-2.85,1.21-.17,3.36.8,6.43,2.92.7-.46,2.15-1.34,4.34-2.63,1.13-.56,1.99-.88,2.6-.97,1.4-.2,3.14.89,5.22,3.26,1.33,1.45,2.11,3.17,2.31,5.15ZM617.92,164.64c-.09-2.43-.18-3.97-.27-4.62-.21-1.5-.78-2.19-1.71-2.06-.36.05-.81.19-1.37.41l-7.85,4.55c-.91.53-1.44.8-1.58.82-.29.04-.62-.26-1-.9-1.72,2.83-3.14,6.77-4.25,11.82-.87,3.95-1.36,7.45-1.48,10.5-.11,2.06-.05,3.91.18,5.56.78,5.51,2.85,7.96,6.23,7.34,1.35-.23,2.75-.97,4.18-2.23,2.72-2.46,4.95-6.94,6.71-13.43,1.69-6.11,2.43-12.04,2.21-17.77Z"/><path class="cls-1" d="M678.31,148.04c.66,4.69.66,9.25.01,13.68-.21,1.34-.66,2.07-1.34,2.16-.5.07-1.71-.49-3.63-1.68-.96-.59-1.32-1.58-1.07-2.97.54-3.4.68-6.08.4-8.05-.1-.68-.29-1-.57-.96-.43.06-1.04.8-1.82,2.23-6.08,10.75-10.11,22.41-12.1,34.99-.64,4-1.37,6.05-2.2,6.17-.32.05-1.82-.38-4.5-1.28-1.3-.44-1.88-1.56-1.73-3.37,1.08-12.78,2.66-23.66,4.71-32.63-2.26,3.16-3.67,5.32-4.24,6.45-.23.47-.59.74-1.09.81-.61.09-.95-.14-1.03-.68-.04-.32.05-.7.28-1.13,1.46-2.36,3.35-5.91,5.67-10.65.67-1.7,1.46-2.61,2.35-2.74.64-.09,2.02.23,4.13.95,1.19.42,1.48,1.16.86,2.23-.64,1.15-1.61,5.03-2.91,11.63-1.21,6.41-1.97,11.41-2.27,14.99,3.34-11.53,7.52-21.88,12.54-31.05.96-1.74,1.8-2.66,2.51-2.76.65-.09,1.58.22,2.81.92,1.53-.03,2.51.07,2.94.3.67.34,1.09,1.16,1.28,2.45Z"/><path class="cls-1" d="M736.34,143.16c-1.75,23.64-4,41.46-6.76,53.45-5.33,23.31-13.47,35.73-24.43,37.27-6.41.9-13.79-1.62-22.14-7.56-.73-.52-1.14-1.12-1.24-1.8-.15-1.07.28-1.68,1.28-1.82.5-.07,1.01.06,1.53.39,6.53,4.15,12.09,5.91,16.67,5.26,8.41-1.18,15.06-9.27,19.96-24.27,3.86-11.75,6.49-27.15,7.89-46.22.06-1.36.19-3.44.38-6.24-2.9,6.65-6.25,13.27-10.07,19.86-3.67,6.36-6.64,10.79-8.91,13.3-1.27,1.38-2.33,2.13-3.19,2.26-.68.1-1.43-.18-2.25-.83-.89-.86-1.79-1.7-2.71-2.52-.42-.38-.65-.75-.7-1.11,0-.03,0-.07-.01-.11.01-.44.29-.79.84-1.05,1.39-2.57,2.29-7.82,2.71-15.76.29-6.24.26-12.13-.08-17.67-.11-1.3-.36-1.92-.76-1.86-.11.02-.86.78-2.25,2.29-2.21,2.47-3.42,3.71-3.63,3.74-.5.07-.79-.15-.86-.65-.03-.25.04-.52.22-.8.5-.84,1.6-2.91,3.29-6.21,1.52-2.95,2.6-4.47,3.25-4.56.5-.07,1.21.05,2.13.36,1.79-.54,2.78-.83,3-.86,1.21-.17,1.96.68,2.22,2.54.44,3.11.4,9.33-.11,18.66-.51,9.33-1.16,15.39-1.93,18.2,3.18-3.33,7.05-9.53,11.62-18.61,4.45-8.84,7.07-15.39,7.85-19.66-.27-2.41.08-3.68,1.05-3.81.75-.11,2.26.47,4.51,1.72,1.27.7,1.81,2.26,1.65,4.7Z"/><path class="cls-1" d="M243.83,26.03C188.15,92.09,19.79,219.63,1.57,163.58-8.06,134.19,26.83,67.02,101.41,11.92c4.33-1.3,10.94-.8,14.09-.28,3.15.52,1.26,4.19-2.06,6.43C52.73,60.13,8.65,126.73,15.91,154.04,30.18,207.67,217.28,57.67,252.77,6.93c1.08-1.04,2.23-1.8,9.17-5.76,3.89-2.39,5.96-.83,4.63,2.09l-57.21,124.35c22.3-18.74,60.48-42.92,80.78-53.89,0,0,1.68,5.73-4.77,9.26-14.61,7.96-55.02,34.53-80.79,55.55-20.01,43.76-35.09,74.9-45.51,94.1-6.26,11.61-10.49,16.66-13.59,17.48-3.24.86-6.93-.57-6.59-8.35,1.77-39.81,31.27-82.48,52.92-101.95l52.03-113.78ZM146.53,233.7c-.29,1.73.24,2.05,1.03.48,0,0,3.67-7.16,9.55-20.18,7.36-15.97,28.42-60.31,28.42-60.31-20.28,21.22-36.41,55.2-39.01,80.01Z"/><path class="cls-1" d="M297.32,53.71s10.97-15.43,14.71-31.95c0,0,2.75-.43,6.18.01,5.13.59,6.5,4.6,2.88,10.84-7.65,13.19-19.12,23.32-19.12,23.32l-4.66-2.23Z"/><path class="cls-1" d="M337.78,73.24c-13.09,3.48-18.11,3.31-18.86.49-1.87-7.04,21.98-25.59,59.99-35.7,20.97-5.58,25.14-1.26,24.69,1.57-.68,4.25-6.53,7.77-10.19,8.74l.06-.92c.13-3.5-6.14-4.39-19.66-.8-24.92,6.63-33.61,15.87-33.69,17.85.02,1.2.59,1.65,5.52.34l22.94-6.1c45.47-12.09-1.08,21.99-28.11,29.18-10.56,2.81-11.81-3.04-7.26-8.02,1.36,3.41,5.02,2.43,7.55,1.76,9.29-2.47,27.19-12.81,27.4-15.43-.05-.74-.96-.8-6.17.59l-24.21,6.44Z"/><path class="cls-1" d="M304.14,146.91s40.8-28.9,97.14-39.29c44.27-8,55.21,7.18,60.96,7.87,0,0,203.56-17.37,222.18-20.98,9.31-1.96,14.38-4.15,17.65-7.32,8.79-7.17-2.99-8.57-10.66-10.15-7.67-1.58-115.71-20.9-162.88-6.58-47.17,14.32-79.21,33.16-79.21,33.16,0,0,57.95-40.75,115.25-42.83,57.3-2.08,147,6.99,262.89,32.13-74.84-13.18-112.22,4.14-175.7,12.7-38.42,5.18-201.96,29.01-203.06,25.17-6.26-21.88-57.86-36.1-84.37,9.92,2.5-11.19,3.35-16.11-15.98-10.09-20.09,6.25-44.22,16.3-44.22,16.3Z"/></g></svg>