<?xml version="1.0" encoding="UTF-8"?><svg id="_レイヤー_2" xmlns="http://www.w3.org/2000/svg" viewBox="0 0 18.33 18.33"><defs><style>.cls-1{fill:#fff;stroke-width:0px;}</style></defs><g id="_レイヤー_1-2"><path class="cls-1" d="M18.27,12.94c-.07,1.47-.41,2.77-1.48,3.84-1.07,1.07-2.37,1.41-3.84,1.48-1.51.09-6.05.09-7.56,0-1.47-.07-2.76-.41-3.84-1.48C.47,15.71.13,14.41.06,12.94-.02,11.43-.02,6.89.06,5.38c.07-1.47.4-2.77,1.48-3.84C2.62.47,3.92.13,5.39.06,6.9-.02,11.43-.02,12.95.06c1.47.07,2.77.41,3.84,1.48,1.08,1.07,1.41,2.37,1.48,3.84.09,1.51.09,6.04,0,7.56ZM16.68,9.16c0-1.33.11-4.2-.37-5.4-.32-.8-.94-1.42-1.74-1.74-1.2-.47-4.07-.37-5.4-.37s-4.2-.11-5.4.37c-.8.32-1.42.94-1.74,1.74-.47,1.2-.37,4.07-.37,5.4s-.11,4.2.37,5.4c.32.81.94,1.42,1.74,1.74,1.2.47,4.07.37,5.4.37s4.2.11,5.4-.37c.8-.32,1.42-.94,1.74-1.74.48-1.2.37-4.07.37-5.4ZM13.87,9.16c0,2.6-2.1,4.7-4.7,4.7s-4.7-2.1-4.7-4.7,2.1-4.7,4.7-4.7,4.7,2.1,4.7,4.7ZM12.22,9.16c0-1.68-1.37-3.05-3.06-3.05s-3.06,1.37-3.06,3.05,1.37,3.06,3.06,3.06,3.06-1.37,3.06-3.06ZM14.06,5.37c-.61,0-1.1-.49-1.1-1.1s.49-1.1,1.1-1.1,1.1.49,1.1,1.1-.49,1.1-1.1,1.1Z"/></g></svg>