<?xml version="1.0" encoding="UTF-8"?><svg id="_レイヤー_2" xmlns="http://www.w3.org/2000/svg" viewBox="0 0 280.82 84.95"><defs><style>.cls-1{fill:#000;stroke-width:0px;}</style></defs><g id="_レイヤー_1-2"><path class="cls-1" d="M142.99,52.78c.04.11.07.2.08.29.05.35-.13.62-.54.8-.02.02-.44.14-1.27.38-1.84.53-4.12,1.11-6.84,1.72-.5,1.63-1.09,4.91-1.77,9.84,2.27-.53,4.57-.98,6.92-1.36.7-.11,1.2.05,1.5.48.06.09.21.48.44,1.16.04.09.06.18.07.25.06.41-.38.77-1.3,1.06-.66.22-1.06.33-1.2.34-.23.02-.43-.07-.58-.27-.22-.3-.56-.42-1.04-.36-2.65.37-4.37.67-5.17.88-.28,1.18-.63,4.3-1.04,9.36-.08.94-.31,1.44-.7,1.49-.25.04-.8-.02-1.62-.18-.5-.09-.75-.6-.75-1.53,0-1.19.08-2.35.23-3.49.07-.53.55-.78,1.42-.74.19-.67.38-1.73.58-3.17-.69-1.24-1.04-1.88-1.05-1.91-.01-.07-.01-.15-.01-.22.02-.41.57-.82,1.67-1.22.03-.22.58-3.53,1.65-9.93-1.9.42-3.73.97-5.51,1.67-2.01.78-3.31,1.51-3.89,2.2-.62.73-.88,1.42-.79,2.06.1.69.65,1.73,1.66,3.11.11.13.17.27.19.42.04.3-.08.47-.35.51-.19.03-.39-.06-.58-.27-1.15-1.24-1.93-2.22-2.33-2.94-.28-.51-.54-1.26-.76-2.25-.33-1.48.72-2.74,3.16-3.79,3.2-1.38,6.5-2.46,9.89-3.25.28-.84.51-1.28.71-1.31.28-.04.8.2,1.57.71.32-.04,1.28-.3,2.9-.78.27-.09.53-.34.78-.76.22-.39.83-.68,1.83-.87.55-.1.97.05,1.23.46.03.06.23.53.59,1.42Z"/><path class="cls-1" d="M160.52,61.65c-.68,3.25-1.09,5.96-1.22,8.12.16-.2.36-.49.61-.88.25-.39.4-.63.47-.7.14-.24.31-.38.5-.4.18-.03.29.05.31.23.02.11-.02.24-.09.4-.9,1.85-1.42,3.66-1.56,5.44-.04.5-.17.77-.39.8-.21.03-.62-.11-1.23-.42-.36-.17-.57-.33-.64-.47-.08-.12-.12-.39-.11-.8.08-3.16.35-5.81.83-7.96-.82,1.86-1.99,3.96-3.52,6.29-1.34,2.03-2.32,3.35-2.96,3.95-.46.42-.82.65-1.09.69-.22.03-.58-.1-1.08-.39-.7-.3-1.1-.79-1.19-1.47-.02-.13-.03-.29-.03-.46-.03-1.83.46-4.03,1.49-6.61,1.02-2.58,2.3-4.81,3.83-6.7.5-.61.97-.95,1.42-1,.44-.04,1.35.42,2.74,1.38.12.08.19.18.21.29.03.19-.09.31-.34.34-.1.01-.19,0-.28-.02-.91-.24-1.6-.13-2.07.33-1.02,1-2.08,2.65-3.17,4.96-1.26,2.65-1.92,4.98-1.97,6.97,0,.09,0,.17.02.24.04.3.19.44.43.4.41-.06.86-.41,1.36-1.06,1.17-1.52,2.4-3.38,3.67-5.61,1.3-2.3,2.1-4.01,2.4-5.13.22-.82.35-1.4.41-1.73.08-.57.21-.87.39-.89.18-.03.64.16,1.38.57.31.17.49.33.53.5.05.14.03.41-.06.79Z"/><path class="cls-1" d="M178.04,57.86c.27,1.88.22,3.44-.14,4.66-.15.5-.48.66-.97.47-.73-.28-1.12-.54-1.15-.79-.02-.11.05-.24.19-.38.25-1.22.31-2.16.18-2.79-.1-.54-.41-.78-.94-.7-.06,0-.15,0-.28,0-.13-.01-.22-.01-.3,0-.42.06-.89.53-1.4,1.42-.55.99-1.03,2.34-1.42,4.03-.32,1.4-.5,2.58-.54,3.55-.04.7-.02,1.33.06,1.89.26,1.86.98,2.69,2.15,2.48,1.03-.17,2.36-1.68,3.99-4.52.16-.26.32-.4.48-.42.16-.02.25.06.28.26.01.1,0,.22-.04.38-.42,1.67-1.07,3.18-1.95,4.53-.21.34-.64.55-1.28.65-.39.05-.87.04-1.45-.04-1.13.08-2.07-.15-2.83-.7-.81-.59-1.28-1.45-1.38-2.57-.13-1.29.07-3.14.59-5.55.56-2.61,1.26-4.54,2.1-5.8.39-.57.74-.88,1.06-.93.32-.04.97.14,1.97.54.47-.25.95-.41,1.44-.48.96-.13,1.49.14,1.58.82Z"/><path class="cls-1" d="M194,45.6c.37.13.56.32.6.55.02.16-.08.25-.31.29-.05,0-.13,0-.23,0-.11,0-.18,0-.23,0-.46.06-.95.65-1.46,1.75-.46.98-.99,3.05-1.6,6.21-.06.28-.07.44-.04.49.05.08.21.11.49.08.72-.04,1.68-.2,2.87-.48.41-.09.64.05.69.44.04.27-.1.45-.4.56-.25.07-1.58.37-3.98.89-.86,4.47-1.24,8.2-1.14,11.2.01.16.02.3.04.42.06.41.19.6.4.58.33-.05,1.21-.98,2.63-2.8.17-.22.34-.35.52-.37.16-.02.26.03.32.16.06.14.03.32-.09.53-.8,1.44-1.61,2.68-2.43,3.72-.35.43-.66.67-.92.71-.27.04-.71-.12-1.33-.46-.72-.08-1.12-.4-1.19-.95-.01-.08-.01-.18,0-.3,0-3.2.35-7.18,1.01-11.94-.66,0-1.25,0-1.79,0-.24,0-.37-.13-.41-.39-.04-.28.06-.47.29-.56.23-.1.66-.29,1.29-.59.38-.19.75-.43,1.09-.71.73-4.2,1.39-6.95,1.96-8.25.33-.74.74-1.14,1.22-1.21.46-.07,1.17.08,2.13.44Z"/><path class="cls-1" d="M211.73,55.05c.13,1.09.07,2.55-.18,4.41-.39,2.93-1.2,5.27-2.43,7.03-.65.93-1.44,1.47-2.38,1.6-.36.05-.84.04-1.44-.04-1.15.09-2.13-.14-2.94-.68-.88-.59-1.37-1.45-1.47-2.56-.13-1.29.06-3.15.57-5.58.57-2.64,1.27-4.59,2.11-5.83.4-.6.75-.92,1.05-.97.41-.06,1.14.27,2.18.99.24-.16.73-.46,1.47-.89.38-.19.68-.3.88-.33.47-.07,1.06.3,1.77,1.11.45.49.71,1.08.78,1.75ZM209.71,55.88c-.03-.83-.06-1.35-.09-1.57-.07-.51-.27-.74-.58-.7-.12.02-.28.06-.46.14l-2.66,1.55c-.31.18-.49.27-.54.28-.1.01-.21-.09-.34-.31-.58.96-1.06,2.3-1.44,4.01-.29,1.34-.46,2.53-.5,3.56-.04.7-.02,1.33.06,1.89.26,1.87.97,2.7,2.12,2.49.46-.08.93-.33,1.42-.76.92-.84,1.68-2.35,2.28-4.56.57-2.08.82-4.09.75-6.03Z"/><path class="cls-1" d="M230.2,50.24c.22,1.59.22,3.14,0,4.64-.07.46-.22.7-.45.73-.17.02-.58-.17-1.23-.57-.33-.2-.45-.54-.36-1.01.18-1.15.23-2.06.14-2.73-.03-.23-.1-.34-.19-.33-.15.02-.35.27-.62.76-2.06,3.65-3.43,7.61-4.11,11.87-.22,1.36-.47,2.05-.75,2.09-.11.02-.62-.13-1.53-.43-.44-.15-.64-.53-.59-1.14.37-4.34.9-8.03,1.6-11.07-.77,1.07-1.24,1.8-1.44,2.19-.08.16-.2.25-.37.28-.21.03-.32-.05-.35-.23-.02-.11.02-.24.09-.38.49-.8,1.14-2.01,1.93-3.62.23-.58.49-.89.8-.93.22-.03.69.08,1.4.32.4.14.5.39.29.76-.22.39-.55,1.71-.99,3.95-.41,2.18-.67,3.87-.77,5.09,1.13-3.91,2.55-7.43,4.26-10.54.33-.59.61-.9.85-.94.22-.03.54.07.95.31.52-.01.85.02,1,.1.23.12.37.39.43.83Z"/><path class="cls-1" d="M249.9,48.58c-.59,8.02-1.36,14.07-2.3,18.14-1.81,7.91-4.57,12.13-8.29,12.65-2.17.31-4.68-.55-7.51-2.56-.25-.18-.39-.38-.42-.61-.05-.36.09-.57.43-.62.17-.02.34.02.52.13,2.22,1.41,4.1,2,5.66,1.79,2.85-.4,5.11-3.15,6.77-8.24,1.31-3.99,2.2-9.22,2.68-15.69.02-.46.07-1.17.13-2.12-.98,2.26-2.12,4.5-3.42,6.74-1.24,2.16-2.25,3.66-3.03,4.51-.43.47-.79.72-1.08.77-.23.03-.49-.06-.76-.28-.3-.29-.61-.58-.92-.85-.14-.13-.22-.25-.24-.38,0-.01,0-.02,0-.04,0-.15.1-.27.28-.36.47-.87.78-2.65.92-5.35.1-2.12.09-4.12-.03-6-.04-.44-.12-.65-.26-.63-.04,0-.29.26-.76.78-.75.84-1.16,1.26-1.23,1.27-.17.02-.27-.05-.29-.22-.01-.09.01-.18.07-.27.17-.28.54-.99,1.12-2.11.52-1,.88-1.52,1.1-1.55.17-.02.41.02.72.12.61-.18.94-.28,1.02-.29.41-.06.66.23.75.86.15,1.06.14,3.17-.04,6.33-.17,3.16-.39,5.22-.65,6.18,1.08-1.13,2.39-3.24,3.94-6.31,1.51-3,2.4-5.22,2.66-6.67-.09-.82.03-1.25.36-1.29.25-.04.77.16,1.53.58.43.24.62.77.56,1.59Z"/><path class="cls-1" d="M82.75,8.83C63.85,31.25,6.72,74.54.53,55.51-2.74,45.54,9.11,22.75,34.41,4.04c1.47-.44,3.71-.27,4.78-.1,1.07.18.43,1.42-.7,2.18C17.9,20.41,2.93,43.01,5.4,52.28,10.24,70.48,73.74,19.57,85.78,2.35c.37-.35.76-.61,3.11-1.95,1.32-.81,2.02-.28,1.57.71l-19.42,42.2c7.57-6.36,20.53-14.57,27.41-18.29,0,0,.57,1.95-1.62,3.14-4.96,2.7-18.67,11.72-27.42,18.85-6.79,14.85-11.91,25.42-15.45,31.94-2.12,3.94-3.56,5.65-4.61,5.93-1.1.29-2.35-.19-2.24-2.83.6-13.51,10.61-27.99,17.96-34.6l17.66-38.61ZM49.73,79.31c-.1.59.08.69.35.16,0,0,1.25-2.43,3.24-6.85,2.5-5.42,9.65-20.47,9.65-20.47-6.88,7.2-12.36,18.74-13.24,27.15Z"/><path class="cls-1" d="M100.9,18.23s3.72-5.24,4.99-10.84c0,0,.93-.15,2.1,0,1.74.2,2.21,1.56.98,3.68-2.6,4.48-6.49,7.92-6.49,7.92l-1.58-.76Z"/><path class="cls-1" d="M114.64,24.86c-4.44,1.18-6.15,1.12-6.4.17-.64-2.39,7.46-8.69,20.36-12.12,7.12-1.89,8.53-.43,8.38.53-.23,1.44-2.22,2.64-3.46,2.97l.02-.31c.04-1.19-2.08-1.49-6.67-.27-8.46,2.25-11.41,5.39-11.43,6.06,0,.41.2.56,1.87.12l7.79-2.07c15.43-4.1-.37,7.46-9.54,9.9-3.58.95-4.01-1.03-2.46-2.72.46,1.16,1.7.83,2.56.6,3.15-.84,9.23-4.35,9.3-5.24-.02-.25-.33-.27-2.1.2l-8.22,2.19Z"/><path class="cls-1" d="M103.22,49.86s13.85-9.81,32.97-13.34c15.02-2.72,18.74,2.44,20.69,2.67,0,0,69.08-5.9,75.4-7.12,3.16-.67,4.88-1.41,5.99-2.49,2.98-2.43-1.02-2.91-3.62-3.45-2.6-.54-39.27-7.09-55.28-2.23-16.01,4.86-26.88,11.25-26.88,11.25,0,0,19.67-13.83,39.11-14.53,19.44-.71,49.89,2.37,89.22,10.91-25.4-4.47-38.09,1.41-59.63,4.31-13.04,1.76-68.54,9.84-68.91,8.54-2.12-7.42-19.64-12.25-28.63,3.37.85-3.8,1.14-5.47-5.42-3.43s-15.01,5.53-15.01,5.53Z"/></g></svg>